<svg width="160" height="160" viewBox="0 0 160 160" fill="none" xmlns="http://www.w3.org/2000/svg">
<path d="M80 0C124.183 0.000246023 160 35.8174 160 80C160 124.182 124.182 160 80 160C35.8173 160 0.000180073 124.183 0 80C0 35.8172 35.8172 0 80 0ZM71.1807 29.8027C70.0637 28.1925 67.7717 28.8596 67.3682 30.9121L61.5 60.7686L33.96 84.8047C32.5796 86.0094 32.8611 88.444 34.4551 89.0889L62.7773 100.546L60.7607 127.454C60.6191 129.345 62.3002 130.647 63.8037 129.805C74.4489 123.842 107.795 101.94 124.695 53.8047C125.47 51.5967 123.388 49.6042 121.609 50.8496C111.626 57.8412 89.8083 72.2913 76.3252 75.0439C76.3252 75.0439 84.9597 69.047 90.1279 59.8408C90.6345 58.9385 90.5933 57.7824 90.0283 56.9678L71.1807 29.8027ZM113.921 89.7695C113.227 89.0977 112.032 89.1687 111.479 89.9404C109.735 92.374 105.977 97.3791 102.508 100.438C101.814 101.05 101.908 102.076 102.704 102.576L121.032 114.081C122.135 114.774 123.626 113.952 123.439 112.751C122.587 107.252 120.131 95.7875 113.921 89.7695Z" fill="#3390EC"/>
</svg>
